<svg xmlns="http://www.w3.org/2000/svg" width="89" height="52" fill="none"><path fill="#000" d="M64.277.578h12.875c1.875 0 3.5.203 4.875.61 1.375.406 2.516.994 3.422 1.765a6.924 6.924 0 0 1 2.016 2.797c.448 1.104.672 2.349.672 3.734 0 1.303-.219 2.506-.656 3.61a7.559 7.559 0 0 1-2.016 2.875c-.896.802-2.031 1.432-3.406 1.89-1.375.448-3 .672-4.875.672l-7.953-.015V25h-4.954V.578Zm13 13.656c.938 0 1.756-.109 2.454-.328.708-.229 1.296-.547 1.765-.953.48-.416.833-.916 1.063-1.5.24-.594.359-1.25.359-1.969 0-1.448-.474-2.573-1.422-3.375-.937-.812-2.344-1.218-4.219-1.218h-8.046v9.343h8.046ZM32.992.578h5.485l7.671 18.625L53.82.578h5.485L48.602 25h-4.907L32.992.578ZM.348.578H5.3l8.875 8.906L23.05.578h4.953V25H23.05V7.437l-8.875 8.547L5.3 7.438V25H.348V.578Zm68.484 32.645h3.715v10.09c0 .828.113 1.566.34 2.214a4.29 4.29 0 0 0 1.007 1.63 4.476 4.476 0 0 0 1.676 1.019c.664.226 1.438.34 2.32.34.876 0 1.645-.114 2.31-.34.671-.235 1.23-.574 1.675-1.02a4.216 4.216 0 0 0 1.02-1.629c.226-.648.34-1.386.34-2.215v-10.09h3.714v10.536c0 1.203-.203 2.297-.61 3.281a6.966 6.966 0 0 1-1.769 2.531c-.773.703-1.722 1.246-2.847 1.63-1.117.382-2.395.573-3.832.573-1.438 0-2.72-.191-3.844-.574-1.117-.383-2.063-.926-2.836-1.629a6.968 6.968 0 0 1-1.77-2.53c-.406-.985-.609-2.08-.609-3.282V33.223Zm-21.269 0h9.316c1.406 0 2.625.148 3.656.445 1.031.289 1.887.71 2.567 1.266a5.078 5.078 0 0 1 1.511 2.027c.336.797.504 1.7.504 2.707a7.54 7.54 0 0 1-.246 1.945 5.686 5.686 0 0 1-.762 1.688 5.767 5.767 0 0 1-1.277 1.383 7.082 7.082 0 0 1-1.816.996L65 51.54h-4.547l-3.445-5.204h-.106l-5.625-.012v5.215h-3.715V33.223Zm9.41 9.89c.703 0 1.316-.082 1.84-.246.53-.164.972-.394 1.324-.691.36-.297.625-.657.797-1.078.18-.43.27-.907.27-1.43 0-1.023-.352-1.813-1.056-2.367-.703-.563-1.761-.844-3.175-.844h-5.696v6.656h5.696Zm-32.063-9.89h3.715v10.09c0 .828.113 1.566.34 2.214a4.28 4.28 0 0 0 1.008 1.63 4.476 4.476 0 0 0 1.675 1.019c.665.226 1.438.34 2.32.34.876 0 1.645-.114 2.31-.34.671-.235 1.23-.574 1.675-1.02a4.218 4.218 0 0 0 1.02-1.629c.226-.648.34-1.386.34-2.215v-10.09h3.714v10.536c0 1.203-.203 2.297-.609 3.281a6.967 6.967 0 0 1-1.77 2.531c-.773.703-1.722 1.246-2.847 1.63-1.117.382-2.395.573-3.832.573-1.438 0-2.719-.191-3.844-.574-1.117-.383-2.063-.926-2.836-1.629a6.967 6.967 0 0 1-1.77-2.53c-.406-.985-.609-2.08-.609-3.282V33.223ZM.348 42.21c0-1.288.242-2.491.726-3.608a8.254 8.254 0 0 1 2.121-2.93c.93-.828 2.07-1.48 3.422-1.957 1.36-.477 2.914-.715 4.664-.715.633 0 1.266.035 1.899.105.64.063 1.27.165 1.886.305.625.14 1.23.32 1.817.54a11.01 11.01 0 0 1 1.687.76l-1.71 2.813a6.726 6.726 0 0 0-1.09-.504 8.915 8.915 0 0 0-1.313-.386 11.79 11.79 0 0 0-1.441-.246 13.464 13.464 0 0 0-1.489-.082c-1.156 0-2.187.148-3.093.445-.907.29-1.672.7-2.297 1.23a5.2 5.2 0 0 0-1.43 1.887 5.85 5.85 0 0 0-.492 2.414c0 .907.172 1.739.515 2.496.344.758.832 1.41 1.465 1.957.633.547 1.399.977 2.297 1.29.899.304 1.902.456 3.012.456.883 0 1.691-.097 2.426-.292a6.556 6.556 0 0 0 1.922-.856 4.794 4.794 0 0 0 1.335-1.324 4.54 4.54 0 0 0 .68-1.758H11.47v-3.059h9.738v.012l.012-.012a9.36 9.36 0 0 1 .175 2.743 7.975 7.975 0 0 1-.609 2.507 7.84 7.84 0 0 1-1.36 2.157 8.535 8.535 0 0 1-2.073 1.699c-.805.469-1.72.836-2.743 1.101-1.023.258-2.144.387-3.363.387-1.703 0-3.23-.25-4.582-.75-1.344-.5-2.484-1.183-3.422-2.05a8.885 8.885 0 0 1-2.156-3.047 9.47 9.47 0 0 1-.738-3.727Z"/></svg>